<svg width="20" height="20" viewBox="0 0 20 20" fill="none" xmlns="http://www.w3.org/2000/svg">
<path d="M14.9342 6.40212C14.9342 7.29163 14.6448 8.16112 14.1027 8.90072C13.5605 9.64032 12.7899 10.2167 11.8882 10.5571C10.9866 10.8976 9.99452 10.9866 9.03738 10.813C8.08023 10.6395 7.20104 10.2112 6.51098 9.58224C5.82092 8.95328 5.35098 8.1519 5.16059 7.2795C4.9702 6.40711 5.06792 5.50284 5.44138 4.68105C5.81484 3.85926 6.44726 3.15687 7.25869 2.6627C8.07012 2.16852 9.02406 1.90475 10 1.90475C11.3086 1.90475 12.5637 2.37858 13.489 3.222C14.4144 4.06542 14.9342 5.20934 14.9342 6.40212ZM10.9868 10.8995H9.01313C7.18106 10.8995 5.42401 11.5629 4.12853 12.7436C2.83305 13.9244 2.10526 15.5259 2.10526 17.1958C2.10526 17.4343 2.20923 17.6631 2.3943 17.8318C2.57937 18.0005 2.83037 18.0952 3.0921 18.0952H16.9079C17.1696 18.0952 17.4206 18.0005 17.6057 17.8318C17.7907 17.6631 17.8947 17.4343 17.8947 17.1958C17.8947 15.5259 17.1669 13.9244 15.8714 12.7436C14.576 11.5629 12.8189 10.8995 10.9868 10.8995Z" stroke="#48a5ea" stroke-width="0.97" stroke-linecap="round" stroke-linejoin="round"/>
</svg>
