<?xml version="1.0" encoding="UTF-8" standalone="no" ?>
<!DOCTYPE svg PUBLIC "-//W3C//DTD SVG 1.1//EN" "http://www.w3.org/Graphics/SVG/1.1/DTD/svg11.dtd">
<svg xmlns="http://www.w3.org/2000/svg" xmlns:xlink="http://www.w3.org/1999/xlink" version="1.1" width="15" height="15" viewBox="0 0 15 15" xml:space="preserve">
<desc>Created with Fabric.js 4.6.0</desc>
<defs>
</defs>
<g transform="matrix(1.22 0 0 1.2 7.83 7.7)" id="H-q3mE_0gjTleCgbH9SBm"  >
<g style="" vector-effect="non-scaling-stroke"   >
		<g transform="matrix(1 0 0 1 -0.33 1.51)" id="d9F-VyYbeWPSBTyECHpxn"  >
<path style="stroke: none; stroke-width: 1; stroke-dasharray: none; stroke-linecap: butt; stroke-dashoffset: 0; stroke-linejoin: miter; stroke-miterlimit: 4; fill: rgb(0,0,0); fill-rule: evenodd; opacity: 1;" vector-effect="non-scaling-stroke"  transform=" translate(-5.67, -7.51)" d="M 1.49406 3.20731 C 1.54798 3.15006 1.6229 3.11719 1.7018 3.11719 L 9.64799 3.11719 C 9.72689 3.11719 9.80181 3.15006 9.85573 3.20731 C 9.90908 3.26456 9.93632 3.34165 9.93121 3.41987 L 9.36363 11.6389 C 9.35341 11.788 9.22968 11.9031 9.08041 11.9031 L 2.26938 11.9031 C 2.12011 11.9031 1.99638 11.788 1.98616 11.6389 L 1.41858 3.41987 C 1.41347 3.34165 1.44071 3.26456 1.49406 3.20731 Z M 2.00602 3.68402 L 2.53444 11.3362 L 8.81535 11.3362 L 9.34377 3.68402 L 2.00602 3.68402 Z" stroke-linecap="round" />
</g>
		<g transform="matrix(1 0 0 1 -0.32 -4.02)" id="9W5ZVyLKllTcSSfQFVZOh"  >
<path style="stroke: none; stroke-width: 1; stroke-dasharray: none; stroke-linecap: butt; stroke-dashoffset: 0; stroke-linejoin: miter; stroke-miterlimit: 4; fill: rgb(0,0,0); fill-rule: evenodd; opacity: 1;" vector-effect="non-scaling-stroke"  transform=" translate(-5.68, -1.98)" d="M 11.3517 2.26744 L 0 2.26744 L 0 1.7002 L 11.3517 1.7002 L 11.3517 2.26744 Z" stroke-linecap="round" />
</g>
		<g transform="matrix(1 0 0 1 -0.32 1.37)" id="Bfu9Mj6MV1thWvRCO9tlF"  >
<path style="stroke: none; stroke-width: 1; stroke-dasharray: none; stroke-linecap: butt; stroke-dashoffset: 0; stroke-linejoin: miter; stroke-miterlimit: 4; fill: rgb(0,0,0); fill-rule: evenodd; opacity: 1;" vector-effect="non-scaling-stroke"  transform=" translate(-5.68, -7.37)" d="M 5.3916 9.91887 L 5.3916 4.81738 L 5.95919 4.81738 L 5.95919 9.91887 L 5.3916 9.91887 Z" stroke-linecap="round" />
</g>
		<g transform="matrix(1 0 0 1 -2.17 1.37)" id="ZE5UsIw6Sm_5Ot7WjyDZW"  >
<path style="stroke: none; stroke-width: 1; stroke-dasharray: none; stroke-linecap: butt; stroke-dashoffset: 0; stroke-linejoin: miter; stroke-miterlimit: 4; fill: rgb(0,0,0); fill-rule: evenodd; opacity: 1;" vector-effect="non-scaling-stroke"  transform=" translate(-3.83, -7.37)" d="M 3.68907 9.935 L 3.40527 4.83352 L 3.97172 4.80176 L 4.25551 9.90324 L 3.68907 9.935 Z" stroke-linecap="round" />
</g>
		<g transform="matrix(1 0 0 1 1.52 1.37)" id="Po_CbXQuo-YnyvLgySf7v"  >
<path style="stroke: none; stroke-width: 1; stroke-dasharray: none; stroke-linecap: butt; stroke-dashoffset: 0; stroke-linejoin: miter; stroke-miterlimit: 4; fill: rgb(0,0,0); fill-rule: evenodd; opacity: 1;" vector-effect="non-scaling-stroke"  transform=" translate(-7.52, -7.37)" d="M 7.66117 9.935 L 7.94496 4.83352 L 7.37852 4.80176 L 7.09473 9.90324 L 7.66117 9.935 Z" stroke-linecap="round" />
</g>
		<g transform="matrix(1 0 0 1 -0.32 -4.87)" id="8Uy1bBAUIoFgjJKK2BGeQ"  >
<path style="stroke: none; stroke-width: 1; stroke-dasharray: none; stroke-linecap: butt; stroke-dashoffset: 0; stroke-linejoin: miter; stroke-miterlimit: 4; fill: rgb(0,0,0); fill-rule: evenodd; opacity: 1;" vector-effect="non-scaling-stroke"  transform=" translate(-5.68, -1.13)" d="M 1.98633 1.41708 C 1.98633 0.634285 2.62146 0 3.40529 0 L 7.94597 0 C 8.72981 0 9.36494 0.634285 9.36494 1.41708 L 9.36494 1.98391 C 9.36494 2.14036 9.2378 2.26733 9.08114 2.26733 L 2.27012 2.26733 C 2.11347 2.26733 1.98633 2.14036 1.98633 1.98391 L 1.98633 1.41708 Z M 3.40529 0.566832 C 2.93533 0.566832 2.55391 0.947743 2.55391 1.41708 L 2.55391 1.7005 L 8.79735 1.7005 L 8.79735 1.41708 C 8.79735 0.947743 8.41593 0.566832 7.94597 0.566832 L 3.40529 0.566832 Z" stroke-linecap="round" />
</g>
</g>
</g>
</svg>