<svg width="23" height="23" viewBox="0 0 23 23" fill="none" xmlns="http://www.w3.org/2000/svg">
<rect width="23" height="23" fill="white"/>
<path d="M3 3.05556L3 5.84222C2.99945 6.08886 3.09826 6.32787 3.27929 6.51778L8.79214 12.26C8.97317 12.4499 9.07198 12.6889 9.07143 12.9356L9.07143 21L13.9286 18.8889L13.9286 12.9356C13.928 12.6889 14.0268 12.4499 14.2079 12.26L19.7207 6.51778C19.9017 6.32787 20.0006 6.08886 20 5.84222V3.05556C20 2.7756 19.8721 2.50712 19.6443 2.30917C19.4166 2.11121 19.1078 2 18.7857 2L4.21429 2C3.89224 2 3.58338 2.11121 3.35566 2.30917C3.12794 2.50712 3 2.7756 3 3.05556V3.05556Z" stroke="#48A5EA" stroke-width="3" stroke-linecap="round" stroke-linejoin="round"/>
</svg>
