<svg width="15" height="20" viewBox="0 0 15 20" fill="none" xmlns="http://www.w3.org/2000/svg">
<path d="M14 2.96296V18.0423C14 18.309 13.9021 18.5647 13.728 18.7532C13.5539 18.9417 13.3176 19.0476 13.0714 19.0476H1.92857C1.6823 19.0476 1.44611 18.9417 1.27197 18.7532C1.09783 18.5647 1 18.309 1 18.0423V1.95767C1 1.69105 1.09783 1.43535 1.27197 1.24682C1.44611 1.05829 1.6823 0.952377 1.92857 0.952377H12.1428M14 2.96296L12.1428 0.952377M14 2.96296H12.1428V0.952377M10.2857 15.0265H4.71428M4.71428 11.0053H10.2857M4.71428 6.98415H10.2857" stroke="white" stroke-width="0.97" stroke-linecap="round" stroke-linejoin="round"/>
</svg>
