<svg width="23" height="23" viewBox="0 0 23 23" fill="none" xmlns="http://www.w3.org/2000/svg">
<g clip-path="url(#clip0_0_1)">
<rect width="23" height="23" fill="white"/>
<path d="M21.0892 21.0893L15.4747 15.4748M21.6507 21.6507L17.7205 17.7205M17.7205 9.86027C17.7205 11.4148 17.2595 12.9346 16.3959 14.2272C15.5322 15.5198 14.3045 16.5273 12.8683 17.1222C11.432 17.7172 9.85156 17.8728 8.32682 17.5695C6.80207 17.2663 5.4015 16.5176 4.30222 15.4183C3.20295 14.319 2.45433 12.9185 2.15103 11.3937C1.84775 9.86899 2.00341 8.28856 2.59833 6.85228C3.19326 5.416 4.20073 4.1884 5.49334 3.3247C6.78596 2.461 8.30566 2 9.86028 2C11.9449 2 13.9443 2.82814 15.4184 4.30223C16.8924 5.77631 17.7205 7.7756 17.7205 9.86027Z" stroke="#48A5EA" stroke-width="3" stroke-linecap="round" stroke-linejoin="round"/>
</g>
<defs>
<clipPath id="clip0_0_1">
<rect width="23" height="23" fill="white"/>
</clipPath>
</defs>
</svg>
