<svg width="13" height="13" viewBox="0 0 13 13" fill="none" xmlns="http://www.w3.org/2000/svg">
<path fill-rule="evenodd" clip-rule="evenodd" d="M6.5 0.619048C3.25 0.619048 0.619048 3.25186 0.619048 6.5C0.619048 9.74814 3.25 12.381 6.5 12.381C9.75 12.381 12.381 9.74814 12.381 6.5C12.381 3.25186 9.75 0.619048 6.5 0.619048ZM0 6.5C0 2.91014 2.90952 0 6.5 0C10.0905 0 13 2.91014 13 6.5C13 10.0899 10.0905 13 6.5 13C2.90952 13 0 10.0899 0 6.5Z" fill="black"/>
<path fill-rule="evenodd" clip-rule="evenodd" d="M10 4.91843L5.99082 8.81002C5.85851 8.93844 5.67546 9.00719 5.48837 8.9994C5.29993 8.99032 5.12487 8.90602 5.00459 8.76592L3 6.43094L4.02628 5.60075L5.56316 7.38959L9.05513 4L10 4.91843Z" fill="black"/>
</svg>
